<svg width="49" height="49" viewBox="0 0 49 49" fill="none" xmlns="http://www.w3.org/2000/svg">
<rect x="0.399902" y="0.5" width="48" height="48" rx="12" fill="#F1F1F1"/>
<path d="M20.0664 15.292C20.0664 14.861 20.2376 14.4477 20.5424 14.1429C20.8471 13.8382 21.2604 13.667 21.6914 13.667H27.1081C27.5391 13.667 27.9524 13.8382 28.2571 14.1429C28.5619 14.4477 28.7331 14.861 28.7331 15.292V16.3753C28.7331 16.8063 28.5619 17.2196 28.2571 17.5244C27.9524 17.8291 27.5391 18.0003 27.1081 18.0003H21.6914C21.2604 18.0003 20.8471 17.8291 20.5424 17.5244C20.2376 17.2196 20.0664 16.8063 20.0664 16.3753V15.292Z" fill="#0D9488"/>
<path fill-rule="evenodd" clip-rule="evenodd" d="M18.4416 15.873C17.0787 15.9489 16.2186 16.1655 15.6022 16.783C14.6499 17.7353 14.6499 19.2671 14.6499 22.3308V28.8308C14.6499 31.8955 14.6499 33.4274 15.6022 34.3796C16.5533 35.3308 18.0862 35.3308 21.1499 35.3308H27.6499C30.7136 35.3308 32.2465 35.3308 33.1977 34.3796C34.1499 33.4263 34.1499 31.8955 34.1499 28.8308V22.3308C34.1499 19.2671 34.1499 17.7353 33.1977 16.783C32.5812 16.1655 31.7211 15.9489 30.3582 15.873V16.3746C30.3582 17.2366 30.0158 18.0632 29.4063 18.6727C28.7968 19.2822 27.9702 19.6246 27.1082 19.6246H21.6916C20.8296 19.6246 20.003 19.2822 19.3935 18.6727C18.784 18.0632 18.4416 17.2366 18.4416 16.3746V15.873ZM18.1707 22.8746C18.1707 22.6591 18.2563 22.4525 18.4087 22.3001C18.5611 22.1477 18.7677 22.0621 18.9832 22.0621H29.8166C30.0321 22.0621 30.2387 22.1477 30.3911 22.3001C30.5435 22.4525 30.6291 22.6591 30.6291 22.8746C30.6291 23.0901 30.5435 23.2968 30.3911 23.4492C30.2387 23.6015 30.0321 23.6871 29.8166 23.6871H18.9832C18.7677 23.6871 18.5611 23.6015 18.4087 23.4492C18.2563 23.2968 18.1707 23.0901 18.1707 22.8746ZM19.2541 26.6663C19.2541 26.4508 19.3397 26.2441 19.492 26.0918C19.6444 25.9394 19.8511 25.8538 20.0666 25.8538H28.7332C28.9487 25.8538 29.1554 25.9394 29.3078 26.0918C29.4601 26.2441 29.5457 26.4508 29.5457 26.6663C29.5457 26.8818 29.4601 27.0884 29.3078 27.2408C29.1554 27.3932 28.9487 27.4788 28.7332 27.4788H20.0666C19.8511 27.4788 19.6444 27.3932 19.492 27.2408C19.3397 27.0884 19.2541 26.8818 19.2541 26.6663ZM20.3374 30.458C20.3374 30.2425 20.423 30.0358 20.5754 29.8834C20.7278 29.7311 20.9344 29.6455 21.1499 29.6455H27.6499C27.8654 29.6455 28.0721 29.7311 28.2244 29.8834C28.3768 30.0358 28.4624 30.2425 28.4624 30.458C28.4624 30.6735 28.3768 30.8801 28.2244 31.0325C28.0721 31.1849 27.8654 31.2705 27.6499 31.2705H21.1499C20.9344 31.2705 20.7278 31.1849 20.5754 31.0325C20.423 30.8801 20.3374 30.6735 20.3374 30.458Z" fill="#0D9488"/>
</svg>
