<svg width="17" height="16" viewBox="0 0 17 16" fill="none" xmlns="http://www.w3.org/2000/svg">
<path d="M9.18164 7.99985C9.18164 8.15436 9.13582 8.30541 9.04998 8.43389C8.96413 8.56236 8.84212 8.6625 8.69936 8.72163C8.55661 8.78076 8.39952 8.79623 8.24798 8.76609C8.09643 8.73594 7.95722 8.66154 7.84796 8.55228C7.7387 8.44302 7.6643 8.30381 7.63415 8.15226C7.60401 8.00071 7.61948 7.84363 7.67861 7.70088C7.73774 7.55812 7.83788 7.43611 7.96635 7.35026C8.09483 7.26442 8.24587 7.2186 8.40039 7.2186C8.60759 7.2186 8.80631 7.30091 8.95282 7.44742C9.09933 7.59393 9.18164 7.79265 9.18164 7.99985ZM4.96289 7.2186C4.80837 7.2186 4.65733 7.26442 4.52885 7.35026C4.40038 7.43611 4.30024 7.55812 4.24111 7.70088C4.18198 7.84363 4.16651 8.00071 4.19665 8.15226C4.2268 8.30381 4.3012 8.44302 4.41046 8.55228C4.51972 8.66154 4.65893 8.73594 4.81048 8.76609C4.96202 8.79623 5.11911 8.78076 5.26186 8.72163C5.40462 8.6625 5.52663 8.56236 5.61248 8.43389C5.69832 8.30541 5.74414 8.15436 5.74414 7.99985C5.74414 7.79265 5.66183 7.59393 5.51532 7.44742C5.3688 7.30091 5.17009 7.2186 4.96289 7.2186ZM11.8379 7.2186C11.6834 7.2186 11.5323 7.26442 11.4039 7.35026C11.2754 7.43611 11.1752 7.55812 11.1161 7.70088C11.057 7.84363 11.0415 8.00071 11.0717 8.15226C11.1018 8.30381 11.1762 8.44302 11.2855 8.55228C11.3947 8.66154 11.5339 8.73594 11.6855 8.76609C11.837 8.79623 11.9941 8.78076 12.1369 8.72163C12.2796 8.6625 12.4016 8.56236 12.4875 8.43389C12.5733 8.30541 12.6191 8.15436 12.6191 7.99985C12.6191 7.79265 12.5368 7.59393 12.3903 7.44742C12.2438 7.30091 12.0451 7.2186 11.8379 7.2186ZM16.3691 7.99985C16.3694 9.38126 16.0106 10.739 15.3279 11.9399C14.6451 13.1408 13.6619 14.1436 12.4747 14.8499C11.2875 15.5562 9.9371 15.9418 8.55594 15.9688C7.17479 15.9957 5.81035 15.6632 4.59648 15.0038L1.87227 15.9116C1.67955 15.9758 1.47275 15.9852 1.27503 15.9385C1.07731 15.8918 0.896495 15.791 0.752848 15.6474C0.6092 15.5037 0.508397 15.3229 0.461737 15.1252C0.415077 14.9275 0.424404 14.7207 0.488672 14.528L1.39648 11.8038C0.817783 10.7374 0.49023 9.5529 0.438803 8.3407C0.387376 7.12849 0.613432 5.92054 1.09973 4.80897C1.58604 3.69739 2.31974 2.71154 3.24491 1.92658C4.17008 1.14163 5.26227 0.578291 6.43821 0.279535C7.61415 -0.0192203 8.84278 -0.0455083 10.0304 0.202676C11.2181 0.45086 12.3334 0.966962 13.2913 1.71163C14.2491 2.4563 15.0243 3.40987 15.5578 4.49962C16.0912 5.58938 16.3687 6.78655 16.3691 7.99985ZM15.4316 7.99985C15.4314 6.92127 15.183 5.8572 14.7057 4.88998C14.2284 3.92275 13.535 3.0783 12.6791 2.42196C11.8232 1.76562 10.8277 1.31498 9.76981 1.10492C8.71188 0.89485 7.61981 0.930984 6.57808 1.21052C5.53635 1.49006 4.5729 2.00551 3.76226 2.717C2.95162 3.42848 2.31553 4.31692 1.9032 5.31358C1.49088 6.31024 1.31337 7.38839 1.38441 8.46464C1.45545 9.54088 1.77314 10.5863 2.31289 11.5202C2.34623 11.5777 2.36695 11.6416 2.37369 11.7078C2.38042 11.7739 2.37301 11.8407 2.35195 11.9038L1.37852 14.8241C1.36933 14.8516 1.368 14.8811 1.37467 14.9094C1.38133 14.9376 1.39573 14.9635 1.41626 14.984C1.43678 15.0045 1.46261 15.0189 1.49085 15.0256C1.5191 15.0322 1.54864 15.0309 1.57617 15.0217L4.49414 14.0483C4.54206 14.0325 4.59214 14.0244 4.64258 14.0241C4.72486 14.0246 4.8056 14.0464 4.87695 14.0873C5.94591 14.7063 7.15907 15.0328 8.39432 15.0339C9.62956 15.0349 10.8433 14.7106 11.9133 14.0934C12.9833 13.4763 13.8719 12.5881 14.4895 11.5184C15.1072 10.4487 15.4321 9.23509 15.4316 7.99985Z" fill="#888888"/>
</svg>
