<svg width="49" height="49" viewBox="0 0 49 49" fill="none" xmlns="http://www.w3.org/2000/svg">
<rect x="0.399902" y="0.5" width="48" height="48" rx="12" fill="#F1F1F1"/>
<path fill-rule="evenodd" clip-rule="evenodd" d="M33.9659 23.1082L33.4047 25.2012C32.7493 27.6442 32.4221 28.8662 31.6801 29.6581C31.0945 30.2833 30.3368 30.721 29.5026 30.9158C29.3975 30.9407 29.2913 30.9592 29.183 30.9722C28.1917 31.0946 26.9816 30.7707 24.7803 30.1813C22.3374 29.5259 21.1154 29.1987 20.3235 28.4567C19.698 27.8708 19.2603 27.1127 19.0657 26.2781C18.8187 25.2207 19.1459 23.9998 19.8013 21.5569L20.3614 19.4639L20.6257 18.4835C21.1186 16.6787 21.4501 15.6852 22.0861 15.006C22.6718 14.3811 23.4295 13.9438 24.2636 13.7493C25.3209 13.5023 26.5429 13.8295 28.9869 14.4849C31.4287 15.1392 32.6507 15.4664 33.4426 16.2074C34.0683 16.7935 34.506 17.5521 34.7004 18.3871C34.9474 19.4444 34.6202 20.6653 33.9659 23.1082ZM23.372 22.1224C23.3996 22.0193 23.4473 21.9227 23.5123 21.838C23.5773 21.7534 23.6584 21.6824 23.7508 21.6291C23.8433 21.5757 23.9453 21.5412 24.0511 21.5273C24.157 21.5134 24.2645 21.5205 24.3676 21.5482L29.6001 22.9512C29.7058 22.9762 29.8055 23.0223 29.8932 23.0866C29.9809 23.1509 30.0547 23.2322 30.1104 23.3256C30.1661 23.4189 30.2025 23.5225 30.2174 23.6302C30.2323 23.7379 30.2255 23.8475 30.1973 23.9525C30.1691 24.0575 30.1201 24.1558 30.0532 24.2415C29.9863 24.3272 29.9029 24.3987 29.8079 24.4516C29.7129 24.5045 29.6083 24.5378 29.5002 24.5495C29.3921 24.5612 29.2828 24.5511 29.1786 24.5198L23.9461 23.118C23.7382 23.0621 23.5609 22.926 23.4533 22.7395C23.3456 22.5531 23.3164 22.3304 23.372 22.1224ZM22.5313 25.263C22.5872 25.055 22.7233 24.8778 22.9097 24.7701C23.0962 24.6625 23.3178 24.6332 23.5258 24.6888L26.6653 25.5306C26.7716 25.5551 26.8719 25.6008 26.9601 25.6649C27.0484 25.729 27.1228 25.8103 27.179 25.9038C27.2352 25.9973 27.272 26.1011 27.2872 26.2092C27.3024 26.3172 27.2956 26.4272 27.2674 26.5326C27.2392 26.6379 27.19 26.7365 27.1228 26.8225C27.0557 26.9085 26.9719 26.98 26.8765 27.0329C26.7811 27.0858 26.676 27.1189 26.5675 27.1303C26.459 27.1417 26.3493 27.1311 26.245 27.0992L23.1055 26.2586C23.0024 26.2309 22.9058 26.1832 22.8211 26.1182C22.7365 26.0532 22.6655 25.9722 22.6121 25.8797C22.5588 25.7873 22.5242 25.6852 22.5104 25.5794C22.4965 25.4736 22.5036 25.3661 22.5313 25.263Z" fill="#0D9488"/>
<path opacity="0.5" d="M29.1827 30.9733C28.956 31.6666 28.5581 32.2915 28.0257 32.79C27.2337 33.5321 26.0117 33.8593 23.5688 34.5136C21.1259 35.1679 19.9039 35.4962 18.8477 35.2492C18.0131 35.0546 17.2549 34.6169 16.6691 33.9914C15.927 33.1995 15.5987 31.9775 14.9444 29.5346L14.3843 27.4416C13.7289 24.9987 13.4017 23.7767 13.6477 22.7204C13.8426 21.8857 14.2807 21.1275 14.9065 20.5418C15.6984 19.7998 16.9204 19.4726 19.3633 18.8172C19.8248 18.6937 20.2441 18.581 20.6254 18.4824L20.3611 19.4639L19.801 21.5569C19.1456 23.9998 18.8184 25.2208 19.0643 26.2781C19.2592 27.1128 19.6973 27.871 20.3232 28.4567C21.1151 29.1988 22.3371 29.5259 24.78 30.1813C26.9813 30.7707 28.1914 31.0957 29.1827 30.9733Z" fill="#0D9488"/>
</svg>
