<svg width="49" height="49" viewBox="0 0 49 49" fill="none" xmlns="http://www.w3.org/2000/svg">
<rect x="0.399902" y="0.299805" width="48" height="48" rx="12" fill="#F1F1F1"/>
<g clip-path="url(#clip0_230_9307)">
<g clip-path="url(#clip1_230_9307)">
<g clip-path="url(#clip2_230_9307)">
<path d="M18.0559 11.2998H26.7576L34.124 18.9813V33.9192C34.124 35.7845 32.6087 37.2998 30.7384 37.2998H18.0559C16.1906 37.2998 14.6753 35.7845 14.6753 33.9192V14.6805C14.6753 12.8151 16.1905 11.2998 18.0559 11.2998Z" fill="#0263D1"/>
<path opacity="0.302" fill-rule="evenodd" clip-rule="evenodd" d="M26.7485 11.2998V18.9213H34.125L26.7485 11.2998Z" fill="white"/>
<path d="M27.8284 24.8277H20.9721C20.657 24.8277 20.397 24.5726 20.397 24.2576C20.397 23.9425 20.657 23.6875 20.9721 23.6875H27.8284C28.1435 23.6875 28.3985 23.9425 28.3985 24.2576C28.3985 24.5726 28.1435 24.8277 27.8284 24.8277ZM25.543 31.684H20.9721C20.657 31.684 20.397 31.429 20.397 31.1139C20.397 30.7989 20.657 30.5438 20.9721 30.5438H25.543C25.858 30.5438 26.1131 30.7989 26.1131 31.1139C26.1131 31.429 25.858 31.684 25.543 31.684ZM27.8284 29.3985H20.9721C20.657 29.3985 20.397 29.1435 20.397 28.8284C20.397 28.5134 20.657 28.2583 20.9721 28.2583H27.8284C28.1435 28.2583 28.3985 28.5134 28.3985 28.8284C28.3985 29.1435 28.1435 29.3985 27.8284 29.3985ZM27.8284 27.1131H20.9721C20.657 27.1131 20.397 26.8581 20.397 26.543C20.397 26.228 20.657 25.9729 20.9721 25.9729H27.8284C28.1435 25.9729 28.3985 26.228 28.3985 26.543C28.3985 26.8581 28.1435 27.1131 27.8284 27.1131Z" fill="white"/>
</g>
</g>
</g>
<defs>
<clipPath id="clip0_230_9307">
<rect width="26" height="26" fill="white" transform="translate(11.3999 11.2998)"/>
</clipPath>
<clipPath id="clip1_230_9307">
<rect width="26" height="26" fill="white" transform="translate(11.3999 11.2998)"/>
</clipPath>
<clipPath id="clip2_230_9307">
<rect width="26" height="26" fill="white" transform="translate(11.3999 11.2998)"/>
</clipPath>
</defs>
</svg>
