<svg width="49" height="49" viewBox="0 0 49 49" fill="none" xmlns="http://www.w3.org/2000/svg">
<rect x="0.399902" y="0.700195" width="48" height="48" rx="12" fill="#F1F1F1"/>
<g clip-path="url(#clip0_230_9391)">
<g clip-path="url(#clip1_230_9391)">
<g clip-path="url(#clip2_230_9391)">
<mask id="mask0_230_9391" style="mask-type:luminance" maskUnits="userSpaceOnUse" x="11" y="11" width="27" height="27">
<path d="M11.3999 11.7002H37.3999V37.7002H11.3999V11.7002Z" fill="white"/>
</mask>
<g mask="url(#mask0_230_9391)">
<path d="M35.827 35.0996H14.0005V15.5996H35.6483C35.8783 15.5997 36.1061 15.645 36.3186 15.7331C36.5311 15.8212 36.7242 15.9503 36.8868 16.113C37.0494 16.2757 37.1784 16.4689 37.2664 16.6814C37.3544 16.894 37.3996 17.1218 37.3996 17.3518V33.5275C37.3996 33.734 37.3589 33.9385 37.2799 34.1293C37.2008 34.3201 37.085 34.4935 36.939 34.6395C36.7929 34.7855 36.6196 34.9013 36.4288 34.9804C36.238 35.0594 36.0335 35.0996 35.827 35.0996Z" fill="#F7A004"/>
<path d="M15.2993 33.7994V16.8994H35.6476C35.8964 16.8994 36.0989 17.1018 36.0989 17.3512V33.5255C36.0987 33.5979 36.0699 33.6672 36.0188 33.7184C35.9676 33.7696 35.8982 33.7984 35.8259 33.7985H15.3002L15.2993 33.7994Z" fill="white"/>
<path d="M25.3316 17.3919L23.4638 15.7577C22.3897 14.8178 21.011 14.2998 19.5838 14.2998H16.4099C15.9426 14.2998 15.4944 14.4854 15.164 14.8159C14.8336 15.1463 14.6479 15.5945 14.6479 16.0618V22.0998H32.8475V20.6118C32.8475 20.1445 32.6618 19.6963 32.3314 19.3659C32.001 19.0354 31.5528 18.8498 31.0855 18.8498H29.2117C27.7844 18.8498 26.4057 18.3318 25.3316 17.3919Z" fill="url(#paint0_linear_230_9391)"/>
<path d="M22.7349 17.3919L20.8676 15.7577C19.7935 14.8179 18.4148 14.2998 16.9876 14.2998H13.8132C13.3459 14.2998 12.8978 14.4854 12.5673 14.8159C12.2369 15.1463 12.0513 15.5945 12.0513 16.0618V22.0998H30.2513V20.6118C30.2513 20.1445 30.0656 19.6963 29.7352 19.3659C29.4048 19.0354 28.9566 18.8498 28.4893 18.8498H26.615C25.1878 18.8498 23.809 18.3318 22.7349 17.3919Z" fill="url(#paint1_linear_230_9391)"/>
<path d="M34.1494 33.4751V21.9019C34.1494 21.6719 34.1041 21.4441 34.0161 21.2316C33.928 21.0191 33.799 20.826 33.6363 20.6634C33.4737 20.5007 33.2805 20.3717 33.068 20.2838C32.8555 20.1958 32.6277 20.1505 32.3977 20.1506H25.3749C24.9967 20.1503 24.6243 20.057 24.2907 19.8788C23.957 19.7007 23.6723 19.4433 23.4616 19.1292L23.4602 19.1319C21.7897 15.7566 17.262 15.6006 17.262 15.6006H13.3852C13.1245 15.6005 12.8664 15.6517 12.6255 15.7514C12.3847 15.851 12.1658 15.9972 11.9814 16.1815C11.7971 16.3657 11.6508 16.5845 11.551 16.8253C11.4513 17.0662 11.3999 17.3243 11.3999 17.5849V33.4041C11.3999 33.8539 11.5786 34.2853 11.8967 34.6034C12.2147 34.9214 12.6461 35.1001 13.0959 35.1001H35.7744C35.3435 35.1001 34.9301 34.9289 34.6254 34.6242C34.3206 34.3194 34.1494 33.9061 34.1494 33.4751Z" fill="#F9C10A"/>
</g>
</g>
</g>
</g>
<defs>
<linearGradient id="paint0_linear_230_9391" x1="14.6479" y1="18.1998" x2="32.8475" y2="18.1998" gradientUnits="userSpaceOnUse">
<stop offset="0.001" stop-color="#009DFF"/>
<stop offset="0.355" stop-color="#217FFF"/>
<stop offset="0.772" stop-color="#4261FF"/>
<stop offset="1" stop-color="#4F56FF"/>
</linearGradient>
<linearGradient id="paint1_linear_230_9391" x1="12.0513" y1="18.1998" x2="30.2508" y2="18.1998" gradientUnits="userSpaceOnUse">
<stop offset="0.001" stop-color="#00CE2C"/>
<stop offset="1" stop-color="#0CA529"/>
</linearGradient>
<clipPath id="clip0_230_9391">
<rect width="26" height="26" fill="white" transform="translate(11.3999 11.7002)"/>
</clipPath>
<clipPath id="clip1_230_9391">
<rect width="26" height="26" fill="white" transform="translate(11.3999 11.7002)"/>
</clipPath>
<clipPath id="clip2_230_9391">
<rect width="26" height="26" fill="white" transform="translate(11.3999 11.7002)"/>
</clipPath>
</defs>
</svg>
