<svg width="74" height="39" viewBox="0 0 74 39" fill="none" xmlns="http://www.w3.org/2000/svg">
<g clip-path="url(#clip0_591_10747)">
<mask id="mask0_591_10747" style="mask-type:luminance" maskUnits="userSpaceOnUse" x="0" y="0" width="74" height="39">
<path d="M73.2857 0.25H0V38.25H73.2857V0.25Z" fill="white"/>
</mask>
<g mask="url(#mask0_591_10747)">
<mask id="mask1_591_10747" style="mask-type:luminance" maskUnits="userSpaceOnUse" x="0" y="0" width="74" height="38">
<path d="M73.0271 0.25H0V37.965H73.0271V0.25Z" fill="white"/>
</mask>
<g mask="url(#mask1_591_10747)">
<path d="M54.252 37.9658H62.8978V12.501H54.252V37.9658Z" fill="#026B57"/>
<path d="M27.605 17.3975C26.6782 15.0054 24.9985 12.9732 22.8151 11.6025C20.6501 10.2503 17.9246 9.57266 14.6387 9.56947C11.9746 9.5175 9.33975 10.1283 6.97485 11.346C4.80972 12.4806 3.02404 14.2151 1.83529 16.3382C0.582686 18.6546 -0.0427952 21.2535 0.0199168 23.8812C-0.0388601 26.4647 0.578331 29.0193 1.81134 31.2959C2.9917 33.4124 4.78095 35.1321 6.95091 36.2359C9.40378 37.4549 12.1212 38.0566 14.8638 37.9887C17.2726 38.031 19.6653 37.593 21.9003 36.7016C23.8801 35.8846 25.6543 34.6453 27.0973 33.0726L22.2691 28.3225C21.4256 29.2194 20.4054 29.9351 19.2717 30.4255C18.138 30.9156 16.9149 31.1698 15.6781 31.1726C14.4246 31.2006 13.1892 30.8707 12.1192 30.2225C11.0844 29.5678 10.2639 28.6287 9.75782 27.5197C9.55753 27.0885 9.39722 26.6402 9.2788 26.1802H28.8169C29.0775 23.1997 28.6635 20.199 27.605 17.3975ZM19.8981 21.359H9.09201C9.20097 20.7083 9.38082 20.0712 9.62847 19.459C10.0366 18.4249 10.7183 17.5191 11.6019 16.837C12.4962 16.1877 13.5836 15.8533 14.6914 15.887C15.6512 15.8675 16.5993 16.0985 17.4408 16.5567C18.2308 16.9961 18.8724 17.6571 19.285 18.4567C19.7319 19.3488 19.9382 20.3405 19.8837 21.3352L19.8981 21.359Z" fill="#026B57"/>
<path d="M68.9431 37.9648C71.1997 37.9648 73.0291 36.1507 73.0291 33.913C73.0291 31.6755 71.1997 29.8613 68.9431 29.8613C66.6865 29.8613 64.8574 31.6755 64.8574 33.913C64.8574 36.1507 66.6865 37.9648 68.9431 37.9648Z" fill="#026B57"/>
<path d="M39.5902 0.25H30.9492V37.965H39.5902V0.25Z" fill="#026B57"/>
<path d="M51.2426 0.25H42.6016V37.965H51.2426V0.25Z" fill="#026B57"/>
<path d="M67.4371 3.4705L63.6962 5.61273L52.6172 0.25L67.4371 3.4705Z" fill="#F0AF21"/>
<path d="M61.9 6.6435L58.255 8.72876L52.6172 0.25L61.9 6.6435Z" fill="#F0AF21"/>
<path d="M62.858 8.90927L63.6962 5.61277L52.6172 0.25L61.9 6.6435L62.858 8.90927Z" fill="#E09026"/>
<path d="M60.8223 7.25632L62.8581 8.90932L61.9002 6.64355L60.8223 7.25632Z" fill="#CE7C2A"/>
</g>
</g>
</g>
<defs>
<clipPath id="clip0_591_10747">
<rect width="73.2857" height="38" fill="white" transform="translate(0 0.25)"/>
</clipPath>
</defs>
</svg>
