<svg width="49" height="48" viewBox="0 0 49 48" fill="none" xmlns="http://www.w3.org/2000/svg">
<rect x="0.400391" width="48" height="48" rx="12" fill="#F1F1F1"/>
<g clip-path="url(#clip0_415_11874)">
<g clip-path="url(#clip1_415_11874)">
<path d="M18.0564 11H26.7581L34.1245 18.6815V33.6194C34.1245 35.4847 32.6092 37 30.7389 37H18.0564C16.1911 37 14.6758 35.4847 14.6758 33.6194V14.3807C14.6757 12.5153 16.191 11 18.0564 11Z" fill="#56B5AC"/>
<path opacity="0.302" fill-rule="evenodd" clip-rule="evenodd" d="M26.749 11V18.6215H34.1255L26.749 11Z" fill="white"/>
<path d="M27.8289 24.5279H20.9726C20.6575 24.5279 20.3975 24.2728 20.3975 23.9578C20.3975 23.6427 20.6575 23.3877 20.9726 23.3877H27.8289C28.144 23.3877 28.399 23.6427 28.399 23.9578C28.399 24.2728 28.144 24.5279 27.8289 24.5279ZM25.5435 31.3842H20.9726C20.6575 31.3842 20.3975 31.1291 20.3975 30.8141C20.3975 30.4991 20.6575 30.244 20.9726 30.244H25.5435C25.8585 30.244 26.1136 30.4991 26.1136 30.8141C26.1136 31.1291 25.8585 31.3842 25.5435 31.3842ZM27.8289 29.0987H20.9726C20.6575 29.0987 20.3975 28.8437 20.3975 28.5286C20.3975 28.2136 20.6575 27.9585 20.9726 27.9585H27.8289C28.144 27.9585 28.399 28.2136 28.399 28.5286C28.399 28.8437 28.144 29.0987 27.8289 29.0987ZM27.8289 26.8133H20.9726C20.6575 26.8133 20.3975 26.5583 20.3975 26.2432C20.3975 25.9282 20.6575 25.6731 20.9726 25.6731H27.8289C28.144 25.6731 28.399 25.9282 28.399 26.2432C28.399 26.5583 28.144 26.8133 27.8289 26.8133Z" fill="white"/>
</g>
</g>
<defs>
<clipPath id="clip0_415_11874">
<rect width="26" height="26" fill="white" transform="translate(11.4004 11)"/>
</clipPath>
<clipPath id="clip1_415_11874">
<rect width="26" height="26" fill="white" transform="translate(11.4004 11)"/>
</clipPath>
</defs>
</svg>
