<svg width="49" height="49" viewBox="0 0 49 49" fill="none" xmlns="http://www.w3.org/2000/svg">
<rect x="0.399902" y="0.900391" width="48" height="48" rx="12" fill="#F1F1F1"/>
<path fill-rule="evenodd" clip-rule="evenodd" d="M15.1524 34.1481C16.7406 35.734 19.2929 35.7341 24.3997 35.7341C29.5066 35.7341 32.06 35.7341 33.646 34.147C35.2331 32.562 35.2331 30.0076 35.2331 24.9007C35.2331 19.7939 35.2331 17.2405 33.646 15.6534C32.0611 14.0674 29.5066 14.0674 24.3997 14.0674C19.2929 14.0674 16.7395 14.0674 15.1524 15.6534C13.5664 17.2415 13.5664 19.7939 13.5664 24.9007C13.5664 30.0076 13.5664 32.562 15.1524 34.1481ZM21.6914 21.3799C20.9951 21.3799 20.3143 21.5864 19.7353 21.9733C19.1563 22.3601 18.7051 22.91 18.4386 23.5534C18.1721 24.1967 18.1024 24.9046 18.2382 25.5876C18.3741 26.2706 18.7094 26.8979 19.2018 27.3903C19.6942 27.8827 20.3216 28.218 21.0045 28.3539C21.6875 28.4898 22.3954 28.42 23.0388 28.1535C23.6821 27.8871 24.232 27.4358 24.6189 26.8568C25.0057 26.2778 25.2122 25.5971 25.2122 24.9007C25.2122 24.6852 25.2978 24.4786 25.4502 24.3262C25.6026 24.1738 25.8093 24.0882 26.0247 24.0882C26.2402 24.0882 26.4469 24.1738 26.5993 24.3262C26.7516 24.4786 26.8372 24.6852 26.8372 24.9007C26.8372 25.9185 26.5354 26.9134 25.97 27.7596C25.4046 28.6058 24.6009 29.2654 23.6606 29.6548C22.7204 30.0443 21.6857 30.1462 20.6875 29.9477C19.6893 29.7491 18.7724 29.259 18.0528 28.5394C17.3331 27.8197 16.843 26.9028 16.6444 25.9046C16.4459 24.9064 16.5478 23.8718 16.9373 22.9315C17.3268 21.9912 17.9863 21.1875 18.8325 20.6221C19.6788 20.0567 20.6737 19.7549 21.6914 19.7549C21.9069 19.7549 22.1136 19.8405 22.2659 19.9929C22.4183 20.1452 22.5039 20.3519 22.5039 20.5674C22.5039 20.7829 22.4183 20.9895 22.2659 21.1419C22.1136 21.2943 21.9069 21.3799 21.6914 21.3799ZM30.6289 24.9007C30.6289 25.8345 30.258 26.73 29.5977 27.3903C28.9374 28.0506 28.0419 28.4215 27.1081 28.4215C26.8926 28.4215 26.6859 28.5072 26.5335 28.6595C26.3812 28.8119 26.2956 29.0186 26.2956 29.234C26.2956 29.4495 26.3812 29.6562 26.5335 29.8086C26.6859 29.9609 26.8926 30.0465 27.1081 30.0465C28.1258 30.0465 29.1207 29.7448 29.9669 29.1793C30.8132 28.6139 31.4727 27.8102 31.8622 26.8699C32.2517 25.9297 32.3536 24.895 32.155 23.8968C31.9565 22.8986 31.4664 21.9817 30.7467 21.2621C30.0271 20.5424 29.1102 20.0523 28.112 19.8538C27.1138 19.6552 26.0791 19.7571 25.1388 20.1466C24.1986 20.5361 23.3949 21.1956 22.8295 22.0418C22.264 22.8881 21.9622 23.883 21.9622 24.9007C21.9622 25.1162 22.0478 25.3229 22.2002 25.4752C22.3526 25.6276 22.5593 25.7132 22.7747 25.7132C22.9902 25.7132 23.1969 25.6276 23.3493 25.4752C23.5016 25.3229 23.5872 25.1162 23.5872 24.9007C23.5872 23.9669 23.9582 23.0714 24.6185 22.4111C25.2788 21.7508 26.1743 21.3799 27.1081 21.3799C28.0419 21.3799 28.9374 21.7508 29.5977 22.4111C30.258 23.0714 30.6289 23.9669 30.6289 24.9007Z" fill="#0263D1"/>
</svg>
