<svg width="96" height="28" viewBox="0 0 96 28" fill="none" xmlns="http://www.w3.org/2000/svg">
<path d="M36 11.3057L26.9127 16.5096L0 3.4826L36 11.3057Z" fill="#F0AF21"/>
<path d="M22.5496 19.0135L13.6952 24.0789L0 3.4826L22.5496 19.0135Z" fill="#F0AF21"/>
<path d="M24.8765 24.5174L26.9127 16.5097L0 3.4826L22.5496 19.0135L24.8765 24.5174Z" fill="#E09026"/>
<path d="M19.9304 20.5011L24.8758 24.5165L22.5488 19.0126L19.9304 20.5011Z" fill="#CE7C2A"/>
<g clip-path="url(#clip0_907_958)">
<mask id="mask0_907_958" style="mask-type:luminance" maskUnits="userSpaceOnUse" x="42" y="0" width="54" height="28">
<path d="M96 0H42V28H96V0Z" fill="white"/>
</mask>
<g mask="url(#mask0_907_958)">
<mask id="mask1_907_958" style="mask-type:luminance" maskUnits="userSpaceOnUse" x="42" y="0" width="54" height="28">
<path d="M95.8094 0H42V27.79H95.8094V0Z" fill="white"/>
</mask>
<g mask="url(#mask1_907_958)">
<path d="M81.9744 27.7904H88.345V9.02692H81.9744V27.7904Z" fill="#026B57"/>
<path d="M62.3401 12.6352C61.6572 10.8726 60.4195 9.37529 58.8107 8.36524C57.2154 7.36891 55.2072 6.8696 52.786 6.86724C50.823 6.82896 48.8815 7.279 47.139 8.17624C45.5436 9.01229 44.2278 10.2904 43.3519 11.8548C42.4289 13.5616 41.9681 15.4766 42.0143 17.4128C41.971 19.3164 42.4257 21.1987 43.3343 22.8762C44.204 24.4358 45.5224 25.7029 47.1213 26.5162C48.9287 27.4144 50.931 27.8578 52.9519 27.8078C54.7267 27.8389 56.4898 27.5162 58.1366 26.8593C59.5954 26.2573 60.9028 25.3442 61.966 24.1853L58.4084 20.6852C57.7869 21.3462 57.0352 21.8735 56.1998 22.2349C55.3644 22.596 54.4632 22.7833 53.5519 22.7853C52.6282 22.806 51.718 22.5629 50.9296 22.0852C50.1671 21.6028 49.5625 20.9109 49.1896 20.0938C49.042 19.776 48.9239 19.4457 48.8366 19.1068H63.2331C63.4251 16.9106 63.12 14.6996 62.3401 12.6352ZM56.6613 15.5542H48.699C48.7793 15.0748 48.9118 14.6054 49.0943 14.1542C49.395 13.3923 49.8973 12.7249 50.5484 12.2222C51.2073 11.7438 52.0086 11.4974 52.8248 11.5222C53.5321 11.5079 54.2307 11.6781 54.8507 12.0158C55.4328 12.3395 55.9056 12.8266 56.2096 13.4158C56.5389 14.0731 56.6909 14.8038 56.6507 15.5368L56.6613 15.5542Z" fill="#026B57"/>
<path d="M92.7991 27.7896C94.4619 27.7896 95.8099 26.4529 95.8099 24.804C95.8099 23.1554 94.4619 21.8186 92.7991 21.8186C91.1364 21.8186 89.7886 23.1554 89.7886 24.804C89.7886 26.4529 91.1364 27.7896 92.7991 27.7896Z" fill="#026B57"/>
<path d="M71.1708 0H64.8037V27.79H71.1708V0Z" fill="#026B57"/>
<path d="M79.7579 0H73.3909V27.79H79.7579V0Z" fill="#026B57"/>
<path d="M91.6908 2.373L88.9343 3.95149L80.7709 0L91.6908 2.373Z" fill="#F0AF21"/>
<path d="M87.6109 4.711L84.925 6.24751L80.7709 0L87.6109 4.711Z" fill="#F0AF21"/>
<path d="M88.3167 6.38051L88.9343 3.95151L80.7709 0L87.6109 4.711L88.3167 6.38051Z" fill="#E09026"/>
<path d="M86.8164 5.1622L88.3165 6.3802L87.6107 4.71069L86.8164 5.1622Z" fill="#CE7C2A"/>
</g>
</g>
</g>
<defs>
<clipPath id="clip0_907_958">
<rect width="54" height="28" fill="white" transform="translate(42)"/>
</clipPath>
</defs>
</svg>
