<svg width="143" height="38" viewBox="0 0 143 38" fill="none" xmlns="http://www.w3.org/2000/svg">
<path d="M13.7088 0.552986C13.1648 0.850746 9.9688 2.76492 6.596 4.79253C1.4552 7.89775 0.4488 8.54999 0.2448 8.947C0.0136 9.38655 0 10.0813 0 19C0 27.9044 0.0136 28.6134 0.2448 29.0388C0.4352 29.4358 1.1968 29.9462 4.4744 31.9313C6.6776 33.25 8.6768 34.3701 8.908 34.4126C9.4248 34.4977 10.064 34.1858 10.4584 33.6611C10.7304 33.2925 10.744 33.1223 10.744 28.9962C10.744 25.735 10.7848 24.6716 10.9208 24.5582C11.0024 24.4873 13.6544 22.8709 16.796 20.985C19.9376 19.0992 23.2016 17.1425 24.0312 16.6321C24.8744 16.1216 25.7176 15.5261 25.908 15.2851C26.1281 15.0097 26.248 14.6676 26.248 14.3151V11.4C26.248 9.49998 26.2888 7.94028 26.3568 7.94028C26.4112 7.94028 27.4312 8.53581 28.628 9.25894L28.888 9.41649C30.0783 10.1378 30.8081 11.4261 30.8149 12.8179L30.8448 18.9716L30.8698 26.6858C30.8712 27.1094 30.6567 27.5046 30.3008 27.7343C29.9744 27.9186 28.5192 28.8119 27.064 29.691C25.6088 30.5701 23.1744 32.0305 21.6648 32.938C20.1688 33.8455 18.836 34.6395 18.7136 34.682C18.5232 34.7529 18.496 34.4835 18.496 32.0164V31.5312C18.496 30.1257 19.2336 28.8233 20.439 28.1006L21.6648 27.3656C23.392 26.3306 25.1464 25.2671 25.5408 24.9977C25.9824 24.7055 26.248 24.2113 26.248 23.6818V23.1403C26.248 21.6798 26.1528 21.4104 25.6224 21.4104C25.4592 21.4104 24.2352 22.0768 22.9024 22.885C21.556 23.6791 19.4888 24.9268 18.292 25.65C17.0952 26.3589 15.98 27.1246 15.8168 27.3373C15.504 27.7201 15.504 27.791 15.504 31.6335C15.504 35.8589 15.5312 36.0999 16.252 36.979C16.7416 37.5887 17.6664 37.9999 18.5504 37.9999C19.4752 37.9999 19.3528 38.0708 27.404 33.2074C32.5448 30.1022 33.5512 29.45 33.7552 29.0529C33.9864 28.6134 34 27.9186 34 19C34 10.0955 33.9864 9.38655 33.7552 8.96118C33.5648 8.56417 32.8032 8.05372 29.5256 6.06865C27.3224 4.74999 25.3232 3.62984 25.092 3.58731C24.5752 3.50223 23.936 3.81417 23.5416 4.3388C23.2696 4.70745 23.256 4.8776 23.256 9.00372C23.256 12.2649 23.2152 13.3283 23.0928 13.4418C22.9976 13.5127 20.3456 15.1291 17.204 17.0149C14.0624 18.9007 10.7984 20.8574 9.9688 21.3679C9.1256 21.8783 8.2824 22.4738 8.092 22.7149C7.8719 22.9903 7.752 23.3323 7.752 23.6848V26.6C7.752 28.5 7.7112 30.0597 7.6568 30.0597C7.5888 30.0597 6.5688 29.4641 5.372 28.741L5.11201 28.5834C3.92167 27.8621 3.19188 26.5738 3.18511 25.182L3.1552 19.0283L3.1302 11.3141C3.12883 10.8905 3.34327 10.4954 3.6992 10.2657C4.0256 10.0813 5.4808 9.18804 6.936 8.30894C8.3912 7.42984 10.8256 5.96939 12.3352 5.06193C13.8312 4.15447 15.164 3.36044 15.2864 3.31791C15.4768 3.24701 15.504 3.51641 15.504 5.98357V6.47378C15.504 7.87655 14.7692 9.17681 13.5675 9.90045L12.3488 10.6343C10.608 11.6694 8.8536 12.7328 8.4728 13.0022C8.02327 13.294 7.752 13.7935 7.752 14.3295V14.8597C7.752 16.3201 7.8472 16.5895 8.3776 16.5895C8.5408 16.5895 9.7648 15.9231 11.0976 15.1149C12.444 14.3209 14.5112 13.0731 15.708 12.35C16.9048 11.641 18.02 10.8754 18.1832 10.6627C18.496 10.2798 18.496 10.2089 18.496 6.36641C18.496 2.14104 18.4688 1.89999 17.748 1.02089C17.2584 0.41119 16.3336 0 15.4496 0C14.8376 0 14.5112 0.0992546 13.7088 0.552986Z" fill="#F26749"/>
<path d="M48.814 18.822C48.814 17.326 49.1587 15.984 49.848 14.796C50.552 13.608 51.498 12.684 52.686 12.024C53.8887 11.3493 55.2013 11.012 56.624 11.012C58.252 11.012 59.6967 11.4153 60.958 12.222C62.234 13.014 63.158 14.1433 63.73 15.61H60.716C60.32 14.8033 59.77 14.202 59.066 13.806C58.362 13.41 57.548 13.212 56.624 13.212C55.612 13.212 54.71 13.4393 53.918 13.894C53.126 14.3487 52.5027 15.0013 52.048 15.852C51.608 16.7027 51.388 17.6927 51.388 18.822C51.388 19.9513 51.608 20.9413 52.048 21.792C52.5027 22.6427 53.126 23.3027 53.918 23.772C54.71 24.2267 55.612 24.454 56.624 24.454C57.548 24.454 58.362 24.256 59.066 23.86C59.77 23.464 60.32 22.8627 60.716 22.056H63.73C63.158 23.5227 62.234 24.652 60.958 25.444C59.6967 26.236 58.252 26.632 56.624 26.632C55.1867 26.632 53.874 26.302 52.686 25.642C51.498 24.9673 50.552 24.036 49.848 22.848C49.1587 21.66 48.814 20.318 48.814 18.822ZM71.9236 26.698C70.7796 26.698 69.7456 26.4413 68.8216 25.928C67.8976 25.4 67.1716 24.6667 66.6436 23.728C66.1156 22.7747 65.8516 21.6747 65.8516 20.428C65.8516 19.196 66.123 18.1033 66.6656 17.15C67.2083 16.1967 67.949 15.4633 68.8876 14.95C69.8263 14.4367 70.875 14.18 72.0336 14.18C73.1923 14.18 74.241 14.4367 75.1796 14.95C76.1183 15.4633 76.859 16.1967 77.4016 17.15C77.9443 18.1033 78.2156 19.196 78.2156 20.428C78.2156 21.66 77.937 22.7527 77.3796 23.706C76.8223 24.6593 76.0596 25.4 75.0916 25.928C74.1383 26.4413 73.0823 26.698 71.9236 26.698ZM71.9236 24.52C72.569 24.52 73.1703 24.366 73.7276 24.058C74.2996 23.75 74.7616 23.288 75.1136 22.672C75.4656 22.056 75.6416 21.308 75.6416 20.428C75.6416 19.548 75.473 18.8073 75.1356 18.206C74.7983 17.59 74.351 17.128 73.7936 16.82C73.2363 16.512 72.635 16.358 71.9896 16.358C71.3443 16.358 70.743 16.512 70.1856 16.82C69.643 17.128 69.2103 17.59 68.8876 18.206C68.565 18.8073 68.4036 19.548 68.4036 20.428C68.4036 21.7333 68.7336 22.7453 69.3936 23.464C70.0683 24.168 70.9116 24.52 71.9236 24.52ZM86.8109 14.18C87.7643 14.18 88.6149 14.378 89.3629 14.774C90.1256 15.17 90.7196 15.7567 91.1449 16.534C91.5703 17.3113 91.7829 18.25 91.7829 19.35V26.5H89.2969V19.724C89.2969 18.6387 89.0256 17.81 88.4829 17.238C87.9403 16.6513 87.1996 16.358 86.2609 16.358C85.3223 16.358 84.5743 16.6513 84.0169 17.238C83.4743 17.81 83.2029 18.6387 83.2029 19.724V26.5H80.6949V14.378H83.2029V15.764C83.6136 15.2653 84.1343 14.8767 84.7649 14.598C85.4103 14.3193 86.0923 14.18 86.8109 14.18ZM108.16 11.21L102.418 26.5H99.514L93.75 11.21H96.434L100.966 23.926L105.52 11.21H108.16ZM121.367 20.142C121.367 20.5967 121.338 21.0073 121.279 21.374H112.017C112.091 22.342 112.45 23.1193 113.095 23.706C113.741 24.2927 114.533 24.586 115.471 24.586C116.821 24.586 117.774 24.0213 118.331 22.892H121.037C120.671 24.0067 120.003 24.9233 119.035 25.642C118.082 26.346 116.894 26.698 115.471 26.698C114.313 26.698 113.271 26.4413 112.347 25.928C111.438 25.4 110.719 24.6667 110.191 23.728C109.678 22.7747 109.421 21.6747 109.421 20.428C109.421 19.1813 109.671 18.0887 110.169 17.15C110.683 16.1967 111.394 15.4633 112.303 14.95C113.227 14.4367 114.283 14.18 115.471 14.18C116.615 14.18 117.635 14.4293 118.529 14.928C119.424 15.4267 120.121 16.1307 120.619 17.04C121.118 17.9347 121.367 18.9687 121.367 20.142ZM118.749 19.35C118.735 18.426 118.405 17.6853 117.759 17.128C117.114 16.5707 116.315 16.292 115.361 16.292C114.496 16.292 113.755 16.5707 113.139 17.128C112.523 17.6707 112.157 18.4113 112.039 19.35H118.749ZM128.236 26.698C127.282 26.698 126.424 26.5293 125.662 26.192C124.914 25.84 124.32 25.3707 123.88 24.784C123.44 24.1827 123.205 23.5153 123.176 22.782H125.772C125.816 23.2953 126.058 23.728 126.498 24.08C126.952 24.4173 127.517 24.586 128.192 24.586C128.896 24.586 129.438 24.454 129.82 24.19C130.216 23.9113 130.414 23.5593 130.414 23.134C130.414 22.6793 130.194 22.342 129.754 22.122C129.328 21.902 128.646 21.66 127.708 21.396C126.798 21.1467 126.058 20.9047 125.486 20.67C124.914 20.4353 124.415 20.076 123.99 19.592C123.579 19.108 123.374 18.47 123.374 17.678C123.374 17.0327 123.564 16.446 123.946 15.918C124.327 15.3753 124.87 14.95 125.574 14.642C126.292 14.334 127.114 14.18 128.038 14.18C129.416 14.18 130.524 14.532 131.36 15.236C132.21 15.9253 132.665 16.8713 132.724 18.074H130.216C130.172 17.5313 129.952 17.0987 129.556 16.776C129.16 16.4533 128.624 16.292 127.95 16.292C127.29 16.292 126.784 16.4167 126.432 16.666C126.08 16.9153 125.904 17.2453 125.904 17.656C125.904 17.9787 126.021 18.25 126.256 18.47C126.49 18.69 126.776 18.866 127.114 18.998C127.451 19.1153 127.95 19.2693 128.61 19.46C129.49 19.6947 130.208 19.9367 130.766 20.186C131.338 20.4207 131.829 20.7727 132.24 21.242C132.65 21.7113 132.863 22.3347 132.878 23.112C132.878 23.8013 132.687 24.4173 132.306 24.96C131.924 25.5027 131.382 25.928 130.678 26.236C129.988 26.544 129.174 26.698 128.236 26.698ZM138.514 16.424V23.134C138.514 23.5887 138.616 23.9187 138.822 24.124C139.042 24.3147 139.408 24.41 139.922 24.41H141.462V26.5H139.482C138.352 26.5 137.487 26.236 136.886 25.708C136.284 25.18 135.984 24.322 135.984 23.134V16.424H134.554V14.378H135.984V11.364H138.514V14.378H141.462V16.424H138.514Z" fill="black"/>
</svg>
