<svg width="34" height="38" viewBox="0 0 34 38" fill="none" xmlns="http://www.w3.org/2000/svg">
<path d="M13.7088 0.552986C13.1648 0.850746 9.9688 2.76492 6.596 4.79253C1.4552 7.89775 0.4488 8.54999 0.2448 8.947C0.0136 9.38655 0 10.0813 0 19C0 27.9044 0.0136 28.6134 0.2448 29.0388C0.4352 29.4358 1.1968 29.9462 4.4744 31.9313C6.6776 33.25 8.6768 34.3701 8.908 34.4126C9.4248 34.4977 10.064 34.1858 10.4584 33.6611C10.7304 33.2925 10.744 33.1223 10.744 28.9962C10.744 25.735 10.7848 24.6716 10.9208 24.5582C11.0024 24.4873 13.6544 22.8709 16.796 20.985C19.9376 19.0992 23.2016 17.1425 24.0312 16.6321C24.8744 16.1216 25.7176 15.5261 25.908 15.2851C26.1281 15.0097 26.248 14.6676 26.248 14.3151V11.4C26.248 9.49998 26.2888 7.94028 26.3568 7.94028C26.4112 7.94028 27.4312 8.53581 28.628 9.25894L28.888 9.41649C30.0783 10.1378 30.8081 11.4261 30.8149 12.8179L30.8448 18.9716L30.8698 26.6858C30.8712 27.1094 30.6567 27.5046 30.3008 27.7343C29.9744 27.9186 28.5192 28.8119 27.064 29.691C25.6088 30.5701 23.1744 32.0305 21.6648 32.938C20.1688 33.8455 18.836 34.6395 18.7136 34.682C18.5232 34.7529 18.496 34.4835 18.496 32.0164V31.5312C18.496 30.1257 19.2336 28.8233 20.439 28.1006L21.6648 27.3656C23.392 26.3306 25.1464 25.2671 25.5408 24.9977C25.9824 24.7055 26.248 24.2113 26.248 23.6818V23.1403C26.248 21.6798 26.1528 21.4104 25.6224 21.4104C25.4592 21.4104 24.2352 22.0768 22.9024 22.885C21.556 23.6791 19.4888 24.9268 18.292 25.65C17.0952 26.3589 15.98 27.1246 15.8168 27.3373C15.504 27.7201 15.504 27.791 15.504 31.6335C15.504 35.8589 15.5312 36.0999 16.252 36.979C16.7416 37.5887 17.6664 37.9999 18.5504 37.9999C19.4752 37.9999 19.3528 38.0708 27.404 33.2074C32.5448 30.1022 33.5512 29.45 33.7552 29.0529C33.9864 28.6134 34 27.9186 34 19C34 10.0955 33.9864 9.38655 33.7552 8.96118C33.5648 8.56417 32.8032 8.05372 29.5256 6.06865C27.3224 4.74999 25.3232 3.62984 25.092 3.58731C24.5752 3.50223 23.936 3.81417 23.5416 4.3388C23.2696 4.70745 23.256 4.8776 23.256 9.00372C23.256 12.2649 23.2152 13.3283 23.0928 13.4418C22.9976 13.5127 20.3456 15.1291 17.204 17.0149C14.0624 18.9007 10.7984 20.8574 9.9688 21.3679C9.1256 21.8783 8.2824 22.4738 8.092 22.7149C7.8719 22.9903 7.752 23.3323 7.752 23.6848V26.6C7.752 28.5 7.7112 30.0597 7.6568 30.0597C7.5888 30.0597 6.5688 29.4641 5.372 28.741L5.11201 28.5834C3.92167 27.8621 3.19188 26.5738 3.18511 25.182L3.1552 19.0283L3.1302 11.3141C3.12883 10.8905 3.34327 10.4954 3.6992 10.2657C4.0256 10.0813 5.4808 9.18804 6.936 8.30894C8.3912 7.42984 10.8256 5.96939 12.3352 5.06193C13.8312 4.15447 15.164 3.36044 15.2864 3.31791C15.4768 3.24701 15.504 3.51641 15.504 5.98357V6.47378C15.504 7.87655 14.7692 9.17681 13.5675 9.90045L12.3488 10.6343C10.608 11.6694 8.8536 12.7328 8.4728 13.0022C8.02327 13.294 7.752 13.7935 7.752 14.3295V14.8597C7.752 16.3201 7.8472 16.5895 8.3776 16.5895C8.5408 16.5895 9.7648 15.9231 11.0976 15.1149C12.444 14.3209 14.5112 13.0731 15.708 12.35C16.9048 11.641 18.02 10.8754 18.1832 10.6627C18.496 10.2798 18.496 10.2089 18.496 6.36641C18.496 2.14104 18.4688 1.89999 17.748 1.02089C17.2584 0.41119 16.3336 0 15.4496 0C14.8376 0 14.5112 0.0992546 13.7088 0.552986Z" fill="#F26749"/>
</svg>
